<?xml version="1.0" standalone="no"?>
<!DOCTYPE svg PUBLIC "-//W3C//DTD SVG 20010904//EN"
 "http://www.w3.org/TR/2001/REC-SVG-20010904/DTD/svg10.dtd">
<svg version="1.0" xmlns="http://www.w3.org/2000/svg" viewBox="0 0 250.000000 192.000000"
 preserveAspectRatio="xMidYMid meet">

<g transform="translate(0.000000,192.000000) scale(0.100000,-0.100000)"
fill="currentColor" stroke="none">
<path d="M985 1776 c-45 -21 -565 -546 -540 -546 12 0 116 96 280 259 223 223
265 260 297 266 54 10 83 0 134 -47 l45 -42 -218 -218 c-181 -181 -214 -218
-193 -218 19 0 73 48 230 205 l205 205 205 -205 c133 -133 212 -205 226 -205
14 0 -43 62 -196 215 l-215 216 46 44 c52 49 82 60 137 50 32 -6 74 -43 297
-266 164 -163 268 -259 280 -259 26 0 -497 526 -542 546 -70 30 -132 13 -200
-54 -17 -18 -35 -32 -40 -32 -5 0 -25 16 -44 36 -58 61 -129 79 -194 50z"/>
<path d="M1088 1363 c22 -4 24 -9 20 -59 -2 -38 1 -54 10 -54 8 0 12 18 12 54
0 44 4 55 18 59 9 3 -5 5 -33 4 -27 0 -39 -2 -27 -4z"/>
<path d="M1195 1310 c0 -48 3 -60 16 -60 12 0 14 7 11 30 -4 27 -2 30 23 30
25 0 27 -3 22 -30 -5 -22 -3 -30 8 -30 12 0 15 14 15 60 0 47 -3 60 -15 60
-11 0 -14 -7 -9 -25 5 -22 3 -25 -21 -25 -24 0 -27 3 -23 25 4 18 1 25 -11 25
-13 0 -16 -11 -16 -60z"/>
<path d="M1325 1310 c0 -41 4 -60 13 -60 7 0 12 13 12 29 0 20 6 31 18 34 16
4 16 5 0 6 -27 2 -23 39 5 44 15 3 10 5 -13 6 l-35 1 0 -60z"/>
<path d="M730 965 l0 -135 25 0 c24 0 25 3 25 60 0 33 4 60 10 60 6 0 10 -27
10 -60 l0 -60 30 0 c29 0 30 2 30 44 0 25 -5 57 -10 72 -8 19 -8 30 0 38 5 5
10 26 10 46 0 50 -24 70 -83 70 l-47 0 0 -135z m70 60 c0 -14 -4 -25 -10 -25
-5 0 -10 11 -10 25 0 14 5 25 10 25 6 0 10 -11 10 -25z"/>
<path d="M910 965 l0 -135 55 0 c52 0 55 1 55 25 0 20 -5 25 -24 25 -17 0 -25
7 -28 25 -6 30 -2 35 29 35 19 0 23 5 23 30 0 25 -4 30 -25 30 -18 0 -25 5
-25 20 0 19 10 24 38 21 7 -1 12 10 12 29 0 30 0 30 -55 30 l-55 0 0 -135z"/>
<path d="M1070 1072 c0 -31 18 -182 26 -219 3 -19 11 -23 39 -23 19 0 35 3 35
8 0 4 7 54 15 112 20 146 20 150 -9 150 -23 0 -24 -4 -33 -92 l-9 -93 -8 93
c-8 88 -9 92 -32 92 -20 0 -24 -5 -24 -28z"/>
<path d="M1250 965 l0 -135 25 0 25 0 0 135 0 135 -25 0 -25 0 0 -135z"/>
<path d="M1360 965 l0 -135 55 0 c52 0 55 1 55 25 0 21 -5 25 -30 25 -27 0
-30 3 -30 30 0 25 4 30 25 30 21 0 25 5 25 30 0 25 -4 30 -25 30 -18 0 -25 5
-25 20 0 16 7 20 30 20 27 0 30 3 30 30 0 30 -1 30 -55 30 l-55 0 0 -135z"/>
<path d="M1515 1058 c16 -135 25 -213 25 -220 0 -5 16 -8 35 -8 35 0 35 0 35
45 0 25 5 45 10 45 6 0 10 -20 10 -45 0 -44 0 -45 34 -45 37 0 36 -3 52 188
l7 82 -25 0 c-24 0 -25 -4 -35 -87 l-10 -88 -1 88 -2 87 -30 0 -30 0 0 -65 c0
-37 -4 -65 -10 -65 -6 0 -10 28 -10 65 l0 65 -30 0 c-29 0 -30 -1 -25 -42z"/>
<path d="M983 502 l218 -218 -50 -47 c-43 -40 -56 -47 -91 -47 -23 0 -51 5
-63 11 -12 6 -135 124 -273 261 -202 201 -255 249 -274 246 -19 -2 18 -43 235
-256 141 -140 271 -262 289 -273 63 -38 157 -17 220 50 l29 30 46 -41 c25 -22
56 -44 69 -49 35 -14 100 -11 130 5 15 8 144 132 287 275 180 181 254 261 240
261 -13 0 -108 -88 -265 -246 -135 -135 -257 -252 -272 -260 -15 -8 -45 -14
-68 -14 -35 0 -48 7 -91 47 l-50 47 218 218 c181 181 214 218 193 218 -19 0
-73 -48 -230 -205 l-205 -205 -205 205 c-157 157 -211 205 -230 205 -21 0 13
-38 193 -218z"/>
<path d="M1065 690 c-3 -5 -18 -10 -33 -11 -15 0 -21 -3 -15 -6 8 -3 11 -14 7
-29 -11 -42 4 -74 41 -90 62 -26 110 9 103 76 -2 22 1 42 7 44 5 2 0 5 -12 5
-12 1 -25 6 -28 11 -3 6 -19 10 -35 10 -16 0 -32 -4 -35 -10z m65 -18 c0 -5
-8 -16 -17 -25 -17 -14 -19 -13 -36 9 l-18 24 36 0 c19 0 35 -4 35 -8z m-40
-68 c0 -8 5 -14 10 -14 6 0 10 8 10 18 0 21 33 56 43 45 13 -12 7 -56 -10 -75
-20 -22 -66 -24 -87 -2 -16 16 -22 65 -9 78 9 9 43 -31 43 -50z"/>
<path d="M1125 630 c-3 -5 -1 -10 4 -10 6 0 11 5 11 10 0 6 -2 10 -4 10 -3 0
-8 -4 -11 -10z"/>
<path d="M1202 683 c-8 -3 -10 -9 -4 -16 5 -7 17 -34 27 -61 15 -37 20 -45 25
-30 4 10 1 30 -7 44 -7 14 -13 35 -13 48 0 22 -4 25 -28 15z"/>
<path d="M1350 676 c0 -8 -3 -23 -6 -33 -3 -10 2 -7 10 7 18 30 20 40 6 40 -5
0 -10 -6 -10 -14z"/>
<path d="M1413 683 c-9 -3 -13 -26 -13 -64 l0 -59 35 0 c19 0 35 4 35 9 0 4
-12 6 -27 3 l-26 -5 6 62 c3 33 4 61 4 60 -1 0 -8 -3 -14 -6z"/>
<path d="M1277 660 c-3 -11 -1 -20 4 -20 4 0 14 -18 20 -40 13 -42 22 -42 34
0 4 18 3 21 -3 11 -8 -11 -13 -4 -23 27 -13 46 -24 53 -32 22z"/>
</g>
</svg>
